<svg xmlns="http://www.w3.org/2000/svg" viewBox="0 0 80 48" fill="#D73F3F"><path d="M65.42 28.77L79.68 28.77L71.16 19.17L62.67 9.57L54.18 0H11.54L20.03 9.57H5.74L14.23 19.17L14.29 19.23H0L8.52 28.83L17.01 38.43L25.5 48H68.14L59.65 38.43L59.59 38.34H73.88L65.42 28.77ZM39.84 39.95C30.32 39.95 22.6 32.81 22.6 24C22.6 15.19 30.32 8.05 39.84 8.05C49.36 8.05 57.08 15.19 57.08 24C57.08 32.81 49.36 39.95 39.84 39.95Z"/><polygon points="33.38 17.82 33.38 22.99 30.15 22.99 30.15 17.82 28.39 17.82 28.39 30.1 30.15 30.1 30.15 24.92 33.38 24.92 33.38 30.1 35.28 30.1 35.28 17.82"/><path d="M37.03 20.77C37.03 20.29 37.13 19.86 37.34 19.49C37.54 19.11 37.81 18.81 38.15 18.56C38.49 18.32 38.86 18.14 39.29 18.01C39.7 17.89 40.13 17.83 40.55 17.83C40.98 17.83 41.4 17.89 41.82 18.01C42.24 18.14 42.62 18.32 42.96 18.56C43.29 18.81 43.57 19.11 43.77 19.49C43.98 19.86 44.08 20.29 44.08 20.77V27.15C44.08 27.64 43.98 28.07 43.77 28.44C43.57 28.81 43.29 29.11 42.96 29.36C42.62 29.6 42.24 29.79 41.82 29.91C41.4 30.03 40.98 30.09 40.55 30.09C40.13 30.09 39.7 30.03 39.29 29.91C38.86 29.79 38.49 29.6 38.15 29.36C37.81 29.11 37.54 28.81 37.34 28.44C37.13 28.07 37.03 27.64 37.03 27.15V20.77ZM39.05 27.15C39.05 27.57 39.28 27.87 39.57 28.07C39.85 28.27 40.18 28.37 40.57 28.37C40.95 28.37 41.28 28.27 41.57 28.07C41.85 27.87 42.01 27.57 42.01 27.15V20.78C42.01 20.36 41.85 20.05 41.57 19.86C41.28 19.66 40.95 19.53 40.57 19.53C40.18 19.53 39.85 19.66 39.57 19.86C39.28 20.05 39.05 20.36 39.05 20.78V27.15Z"/><polygon points="52.43 17.82 45.43 17.82 45.43 19.62 48.02 19.62 47.99 30.1 49.85 30.1 49.85 19.62 52.43 19.62"/></svg>
